<svg width="12" height="12" viewBox="0 0 12 12" fill="none" xmlns="http://www.w3.org/2000/svg">
<path d="M2.24785 9.1615C1.73835 9.5535 1.00035 9.19 1.00035 8.547V3.453C1.00035 2.81 1.73835 2.4465 2.24785 2.8385L5.36035 5.435C5.44319 5.50413 5.50983 5.5906 5.55556 5.68832C5.6013 5.78604 5.625 5.89261 5.625 6.0005C5.625 6.1084 5.6013 6.21497 5.55556 6.31269C5.50983 6.4104 5.44319 6.49688 5.36035 6.566L2.24785 9.1615Z" stroke="white" stroke-width="0.75" stroke-linejoin="round"/>
<path d="M6.87335 9.1615C6.36335 9.5535 5.62535 9.19 5.62535 8.547V3.453C5.62535 2.81 6.36335 2.4465 6.87335 2.8385L9.98535 5.435C10.0682 5.50413 10.1348 5.5906 10.1806 5.68832C10.2263 5.78604 10.25 5.89261 10.25 6.0005C10.25 6.1084 10.2263 6.21497 10.1806 6.31269C10.1348 6.4104 10.0682 6.49688 9.98535 6.566L6.87335 9.1615Z" stroke="white" stroke-width="0.75" stroke-linejoin="round"/>
</svg>
